<svg xmlns="http://www.w3.org/2000/svg" viewBox="0 0 114.89 164.55"><defs><style>.cls-1{fill:#f4aa4c;}.cls-2{fill:#20b56f;}</style></defs><g id="Layer_2" data-name="Layer 2"><g id="Layer_1-2" data-name="Layer 1"><path class="cls-1" d="M46.1,94.9c-.08-1.11-.82-12.73,4-16.89A36.9,36.9,0,0,1,55,74.68a38.15,38.15,0,0,1,4.59-2.23c1.11-.53,2.77-1.29,4.83-2.12,6.21-2.49,16.23-6.41,28.45-5.91,5.47.22,15.74,1.24,19.55,6.69a13.06,13.06,0,0,1,2.34,7.77s1.61,12.05-8.43,12.45-20.49,1-20.49,1-4.22,1,5.62,2.81,22.9-.2,18.48,11-4.42,17.88-10,17.88H87.68s-6,1.81,1.2,2.41,15.67,0,11.25,7.43S89.48,150.38,86.47,153,73,169.06,64.58,153s-10.85-23.9-12.65-32.33-.81-11.25,6.42-12.66,16.67-1.81,6.23-3c-13.95-1.61-16-4.06-16.87-5.22A8.48,8.48,0,0,1,46.1,94.9Z"/><path class="cls-2" d="M70.1,28.2S72,10.72,78.74,4.4,92.1-.32,94.2,2.39s6.13,12.55,1.11,25.81S82.55,55,81.35,56.42s-3.52-.41-4.52-6.53-1.61,2.51-1.61,5.92-.5,6-10.54-4.72S53.43,38.74,53,33.92s-.6-6.83,1.41-9.44,8-2.61,9.84-.8A54.33,54.33,0,0,0,70.1,28.2Z"/><path class="cls-1" d="M20.25,150.63c-.39-.34-4.44-4-4.17-7a16.49,16.49,0,0,1,.55-2.71,16.08,16.08,0,0,1,.8-2.24c.2-.54.51-1.34.92-2.29a31.61,31.61,0,0,1,7.59-11.28c1.9-1.71,5.67-4.73,8.73-4.15A6.12,6.12,0,0,1,38,122.81s4.48,3.51,1.25,6.93-6.52,7-6.52,7-1.09,1.71,2.8-.9,7.59-7.55,9.79-2.34,4.37,7.42,2.49,9.26l-4.1,4s-1.43,2.57,1.19.41,5.24-5.12,6.19-1.19,1.82,9,1.67,10.85.75,9.77-7.33,7.16-11.44-4.45-14.8-6.69-3.95-3.5-2-6.33,5-6.06,1.1-3c-5.19,4-6.68,3.88-7.35,3.77A4,4,0,0,1,20.25,150.63Z"/><path class="cls-2" d="M6.47,120.46S1.39,114,1.58,109.68s2.92-6,4.51-5.73,6.16,2.2,8.81,8.27a77.11,77.11,0,0,1,4.56,14c.05.86-1.31,1-3.65-.71s.29,1.37,1.4,2.51,1.8,2.18-5.07,1.87-7.8-.46-9.51-1.94S.19,125.87,0,124.34s1.84-3.5,3-3.48A24.94,24.94,0,0,0,6.47,120.46Z"/></g></g></svg>